<?xml version="1.0" encoding="UTF-8" standalone="no"?>
<!-- Created with Inkscape (http://www.inkscape.org/) -->

<svg
        version="1.1"
        id="svg1"
        width="283.4599"
        height="283.4599"
        viewBox="0 0 283.4599 283.4599"
        sodipodi:docname="LogoCFschraegFettRand_B3.pdf"
        inkscape:export-filename="LogoCFschraegFettRand_B3.svg"
        inkscape:export-xdpi="300"
        inkscape:export-ydpi="300"
        xmlns:inkscape="http://www.inkscape.org/namespaces/inkscape"
        xmlns:sodipodi="http://sodipodi.sourceforge.net/DTD/sodipodi-0.dtd"
        xmlns="http://www.w3.org/2000/svg"
>
    <defs
            id="defs1">
        <clipPath
                clipPathUnits="userSpaceOnUse"
                id="clipPath2">
            <path
                    d="M 0,0 H 226.772 V 226.772 H 0 Z"
                    transform="translate(-72.057402,-16.0223)"
                    id="path2"/>
        </clipPath>
        <clipPath
                clipPathUnits="userSpaceOnUse"
                id="clipPath4">
            <path
                    d="M 0,0 H 226.772 V 226.772 H 0 Z"
                    transform="translate(-143.5461,-100.38071)"
                    id="path4"/>
        </clipPath>
        <linearGradient
                x1="0"
                y1="0"
                x2="1"
                y2="0"
                gradientUnits="userSpaceOnUse"
                gradientTransform="matrix(63.126245,-26.795501,-26.795501,-63.126245,99.716225,123.28468)"
                spreadMethod="pad"
                id="linearGradient9">
            <stop
                    style="stop-opacity:1;stop-color:#1d4a79"
                    offset="0"
                    id="stop4"/>
            <stop
                    style="stop-opacity:1;stop-color:#1d4a79"
                    offset="0.00009091"
                    id="stop5"/>
            <stop
                    style="stop-opacity:1;stop-color:#2f882a"
                    offset="0.278773"
                    id="stop6"/>
            <stop
                    style="stop-opacity:1;stop-color:#99d536"
                    offset="0.818727"
                    id="stop7"/>
            <stop
                    style="stop-opacity:1;stop-color:#99d536"
                    offset="0.83214131"
                    id="stop8"/>
            <stop
                    style="stop-opacity:1;stop-color:#99d536"
                    offset="1"
                    id="stop9"/>
        </linearGradient>
        <linearGradient
                x1="0"
                y1="0"
                x2="1"
                y2="0"
                gradientUnits="userSpaceOnUse"
                gradientTransform="matrix(91.742758,-38.942489,-38.942489,-91.742758,65.560141,91.042153)"
                spreadMethod="pad"
                id="linearGradient15">
            <stop
                    style="stop-opacity:1;stop-color:#1d4a79"
                    offset="0"
                    id="stop10"/>
            <stop
                    style="stop-opacity:1;stop-color:#1d4a79"
                    offset="0.336636"
                    id="stop11"/>
            <stop
                    style="stop-opacity:1;stop-color:#2f882a"
                    offset="0.674955"
                    id="stop12"/>
            <stop
                    style="stop-opacity:1;stop-color:#99d536"
                    offset="0.934591"
                    id="stop13"/>
            <stop
                    style="stop-opacity:1;stop-color:#99d536"
                    offset="0.93943131"
                    id="stop14"/>
            <stop
                    style="stop-opacity:1;stop-color:#99d536"
                    offset="1"
                    id="stop15"/>
        </linearGradient>
        <clipPath
                clipPathUnits="userSpaceOnUse"
                id="clipPath17">
            <path
                    d="M 0,0 H 226.772 V 226.772 H 0 Z"
                    transform="translate(-99.405002,-133.5243)"
                    id="path17"/>
        </clipPath>
        <clipPath
                clipPathUnits="userSpaceOnUse"
                id="clipPath19">
            <path
                    d="M 0,0 H 226.772 V 226.772 H 0 Z"
                    transform="translate(-79.109499,-127.7324)"
                    id="path19"/>
        </clipPath>
        <linearGradient
                x1="0"
                y1="0"
                x2="1"
                y2="0"
                gradientUnits="userSpaceOnUse"
                gradientTransform="matrix(11.498268,-28.459212,-28.459212,-11.498268,127.67384,174.48589)"
                spreadMethod="pad"
                id="linearGradient23">
            <stop
                    style="stop-opacity:1;stop-color:#1d4a79"
                    offset="0"
                    id="stop19"/>
            <stop
                    style="stop-opacity:1;stop-color:#1d4a79"
                    offset="0.377682"
                    id="stop20"/>
            <stop
                    style="stop-opacity:1;stop-color:#2f882a"
                    offset="0.786"
                    id="stop21"/>
            <stop
                    style="stop-opacity:1;stop-color:#2f882a"
                    offset="0.80183613"
                    id="stop22"/>
            <stop
                    style="stop-opacity:1;stop-color:#2f882a"
                    offset="1"
                    id="stop23"/>
        </linearGradient>
        <clipPath
                clipPathUnits="userSpaceOnUse"
                id="clipPath25">
            <path
                    d="M 0,0 H 226.772 V 226.772 H 0 Z"
                    transform="translate(-129.7747,-171.718)"
                    id="path25"/>
        </clipPath>
        <clipPath
                clipPathUnits="userSpaceOnUse"
                id="clipPath27">
            <path
                    d="M 0,0 H 226.772 V 226.772 H 0 Z"
                    transform="translate(-114.45591,-57.895101)"
                    id="path27"/>
        </clipPath>
        <clipPath
                clipPathUnits="userSpaceOnUse"
                id="clipPath29">
            <path
                    d="M 0,0 H 226.772 V 226.772 H 0 Z"
                    transform="translate(-139.43541,-57.838199)"
                    id="path29"/>
        </clipPath>
        <clipPath
                clipPathUnits="userSpaceOnUse"
                id="clipPath31">
            <path
                    d="M 0,0 H 226.772 V 226.772 H 0 Z"
                    transform="translate(-112.97511,-116.6262)"
                    id="path31"/>
        </clipPath>
        <linearGradient
                x1="0"
                y1="0"
                x2="1"
                y2="0"
                gradientUnits="userSpaceOnUse"
                gradientTransform="matrix(114.48889,4e-7,4e-7,-114.48889,43.866409,92.532744)"
                spreadMethod="pad"
                id="linearGradient36">
            <stop
                    style="stop-opacity:1;stop-color:#99d536"
                    offset="0"
                    id="stop31"/>
            <stop
                    style="stop-opacity:1;stop-color:#99d536"
                    offset="0.300455"
                    id="stop32"/>
            <stop
                    style="stop-opacity:1;stop-color:#2f882a"
                    offset="0.562818"
                    id="stop33"/>
            <stop
                    style="stop-opacity:1;stop-color:#1d4a79"
                    offset="0.9"
                    id="stop34"/>
            <stop
                    style="stop-opacity:1;stop-color:#1d4a79"
                    offset="0.90740006"
                    id="stop35"/>
            <stop
                    style="stop-opacity:1;stop-color:#1d4a79"
                    offset="1"
                    id="stop36"/>
        </linearGradient>
        <clipPath
                clipPathUnits="userSpaceOnUse"
                id="clipPath38">
            <path
                    d="M 0,0 H 226.772 V 226.772 H 0 Z"
                    transform="translate(-40.633401,-127.8743)"
                    id="path38"/>
        </clipPath>
        <clipPath
                clipPathUnits="userSpaceOnUse"
                id="clipPath40">
            <path
                    d="M 0,0 H 226.772 V 226.772 H 0 Z"
                    transform="translate(-77.360102,-189.5479)"
                    id="path40"/>
        </clipPath>
    </defs>
    <sodipodi:namedview
            id="namedview1"
            pagecolor="#ffffff"
            bordercolor="#666666"
            borderopacity="1.0"
            inkscape:showpageshadow="2"
            inkscape:pageopacity="0.0"
            inkscape:pagecheckerboard="0"
            inkscape:deskcolor="#d1d1d1"/>
    <g
            id="g1"
            inkscape:groupmode="layer"
            inkscape:label="7"
            transform="translate(-9.4512463,-9.4516535)">
        <path
                id="path1"
                d="M 0,0 C 53.772,-22.825 115.867,2.263 138.692,56.035 161.517,109.808 136.429,171.902 82.657,194.727 28.884,217.552 -33.21,192.464 -56.035,138.692 -78.86,84.92 -53.772,22.825 0,0"
                style="fill:#ffffff;fill-opacity:1;fill-rule:nonzero;stroke:#231f20;stroke-width:1;stroke-linecap:butt;stroke-linejoin:miter;stroke-miterlimit:4;stroke-dasharray:none;stroke-opacity:1"
                transform="matrix(1.3333333,0,0,-1.3333333,96.076533,280.9996)"
                clip-path="url(#clipPath2)"/>
        <path
                id="path3"
                d="m 0,0 c -3.765,-21.616 -30.978,-23.176 -46.456,-31.928 12.046,-8.338 30.193,-1.169 40.92,5.143 6.754,3.974 14.959,8.161 19.378,14.762 3.236,4.833 0.614,4.444 -2.733,7.326 C 6.598,-1.658 3.173,-1.341 0,0"
                style="fill:#1d4a79;fill-opacity:1;fill-rule:nonzero;stroke:none"
                transform="matrix(1.3333333,0,0,-1.3333333,191.3948,168.52173)"
                clip-path="url(#clipPath4)"/>
        <path
                id="path9"
                d="m 113.656,149.899 c -2.392,-2.162 -5.849,-7.988 -7.214,-11.111 v 0 c -1.902,-4.353 -3.064,-7.355 -3.455,-7.797 v 0 c 2.738,-2.376 10.736,-11.442 11.29,-12.285 v 0 c 1.331,0.103 10.368,5.061 20.697,-0.628 v 0 c 1.558,5.988 5.27,23.179 3.827,24.795 v 0 c -2.043,2.288 -9.8,3.832 -12.693,5.136 v 0 c -2.268,1.023 -6.132,3.549 -8.473,3.728 v 0 c -0.643,0.292 -1.095,0.418 -1.443,0.418 v 0 c -1.014,0 -1.138,-1.075 -2.536,-2.256 m 31.869,-8.831 c -1.281,-0.89 -2.976,-22.146 -7.695,-25.069 v 0 c 5.283,-5.324 3.581,-7.589 4.749,-9.812 v 0 c 2.758,-1.444 15.299,-8.132 18.373,-8.658 v 0 c 3.163,-0.543 3.903,4.027 4.457,6.227 v 0 c 2.213,8.789 2.102,18.235 0.068,26.91 v 0 c -1.1,4.692 -0.986,6.652 -4.796,7.996 v 0 c -1.288,0.454 -12.664,2.449 -14.821,2.448 v 0 c -0.177,0 -0.293,-0.013 -0.335,-0.042 m -10.913,-24.311 c 1.207,-1.194 2.274,-1.342 3.218,-0.758 v 0 c -0.289,0.291 -0.598,0.591 -0.93,0.901 v 0 c -0.646,0.436 -1.289,0.827 -1.926,1.178 v 0 c -0.14,-0.537 -0.262,-0.984 -0.362,-1.321"
                transform="matrix(1.3333333,0,0,-1.3333333,0,302.36267)"
                style="fill:url(#linearGradient9);stroke:none"/>
        <path
                id="path15"
                d="m 102.985,179.209 c -1.239,-2.822 3.207,-2.822 5.828,-2.821 v 0 c 0.514,0 0.959,0 1.277,-0.02 v 0 c 5.365,-0.36 16.837,1.002 27.33,-5.413 v 0 c 1.872,-1.055 4.835,-3.697 5.933,-5.459 v 0 c 2.117,-3.395 1.765,-6.956 2.265,-10.993 v 0 c 0.6,-4.85 -1.116,-7.086 2.918,-9.161 v 0 c 2.804,-1.443 5.871,-2.03 10.533,-1.502 v 0 c 2.298,0.644 -4.945,12.157 -4.382,12.772 v 0 c 2.944,2.926 12.963,-19.268 13.54,-21.014 v 0 c 2.782,-8.415 3.058,-17.594 1.788,-26.533 v 0 C 167.151,88.909 148.218,75.34 136.027,65.226 v 0 c -0.836,-0.694 -2.09,-2.657 -0.022,-4.345 v 0 c 3.309,-2.701 7.822,-0.789 7.938,-0.768 v 0 l 10.772,5.681 c 12.762,7.08 20.844,26.018 23.079,39.687 v 0 c 2.33,14.242 -1.409,35.262 -13.884,51.521 v 0 c -3.738,4.493 -8.006,8.219 -12.812,11.453 v 0 c -9.443,6.355 -19.935,10.388 -31.319,11.438 v 0 c -1.185,0.109 -6.286,0.755 -10.571,0.755 v 0 c -3.079,0 -5.738,-0.334 -6.223,-1.439"
                transform="matrix(1.3333333,0,0,-1.3333333,0,302.36267)"
                style="fill:url(#linearGradient15);stroke:none"/>
        <path
                id="path16"
                d="m 0,0 c -6.739,2.427 -9.853,0.586 -16.127,-2.225 -2.27,0.965 -15.061,4.49 -16.041,6.81 -0.933,2.208 3.641,7.996 4.818,9.678 5.033,7.187 12.865,14.699 21.09,17.682 4.327,1.569 3.529,1.314 6.992,-1.83 C 3.15,27.92 9.33,25.446 10.738,22.683 12.053,20.104 7.386,14.982 6.039,12.012 4.281,8.138 1.405,3.92 0,0"
                style="fill:#1d4a79;fill-opacity:1;fill-rule:nonzero;stroke:none"
                transform="matrix(1.3333333,0,0,-1.3333333,132.54,124.33027)"
                clip-path="url(#clipPath17)"/>
        <path
                id="path18"
                d="m 0,0 c -12.934,-17.724 4.848,-38.383 9.304,-55.596 -12.241,4.258 -21.815,20.906 -24.726,33.007 -1.833,7.62 -1.929,15.54 -0.251,23.304 1.23,5.685 0.179,4.418 4.578,4.014 C -7.676,4.414 -3.169,1.351 0,0"
                style="fill:#1d4a79;fill-opacity:1;fill-rule:nonzero;stroke:none"
                transform="matrix(1.3333333,0,0,-1.3333333,105.47933,132.0528)"
                clip-path="url(#clipPath19)"/>
        <path
                id="path23"
                d="m 132.408,167.79 c -2.095,-1.287 -13.027,-7.761 -12.871,-10.884 v 0 c 0.155,-3.092 20.493,-9.889 20.919,-9.453 v 0 c 2.558,2.62 -0.4,14.379 -1.272,17.665 v 0 c -0.857,3.23 -1.37,4.614 -2.614,4.614 v 0 c -0.887,0 -2.145,-0.703 -4.162,-1.942"
                transform="matrix(1.3333333,0,0,-1.3333333,0,302.36267)"
                style="fill:url(#linearGradient23);stroke:none"/>
        <path
                id="path24"
                d="m 0,0 c 0.58,-0.062 0.362,0.062 1.153,-0.015 0.191,-0.019 1.482,-0.545 0.39,-1.193 -1.19,-0.444 -11.047,-5.812 -13.864,-8.236 -3.629,-3.123 -2.592,-3.32 -6.608,-0.662 -1.035,0.685 -9.44,5.489 -8.771,6.826 C -19.296,0.342 -8.958,-1.11 0,0"
                style="fill:#1d4a79;fill-opacity:1;fill-rule:nonzero;stroke:none"
                transform="matrix(1.3333333,0,0,-1.3333333,173.03293,73.405333)"
                clip-path="url(#clipPath25)"/>
        <path
                id="path26"
                d="M 0,0 C -0.039,0.003 -0.078,0.007 -0.115,0.01 -0.076,0.007 -0.038,0.003 0,0"
                style="fill:#99d536;fill-opacity:1;fill-rule:nonzero;stroke:none"
                transform="matrix(1.3333333,0,0,-1.3333333,152.60787,225.1692)"
                clip-path="url(#clipPath27)"/>
        <path
                id="path28"
                d="M 0,0 C -0.249,0.501 -0.907,0.878 -2.282,1.298 -5.486,2.255 -5.233,5.657 -5.422,6.321 -5.447,6.409 -8.68,5.311 -8.703,5.392 -14.565,3.225 -21.838,2.429 -27.634,2.931 c -0.033,0.003 -0.065,0.006 -0.097,0.009 -4.793,0.095 -9.266,0.735 -13.417,1.836 l -13.206,5.606 c -23.718,14.398 -31.725,46.512 -23.631,68.012 5.281,14.031 15.5,24.967 28.694,31.397 5.727,2.791 11.83,4.462 18.058,5.273 5.341,0.696 12.373,-0.608 12.75,0.888 0.518,1.567 -21.214,1.499 -21.339,3.606 -0.01,0.169 3.798,1.273 2.292,2.181 -1.862,1.123 -11.295,-3.415 -13.22,-4.277 -4.619,-2.069 -9.306,-4.695 -13.226,-8.035 C -73.113,101.643 -81.427,91.208 -85.619,79.789 -95.088,54.001 -83.615,26.399 -70.076,12.3 -59.187,0.743 -42.98,-5.162 -26.715,-6.292 -22.913,-6.464 -8.474,-2.949 0,0"
                style="fill:#1d4a79;fill-opacity:1;fill-rule:nonzero;stroke:none"
                transform="matrix(1.3333333,0,0,-1.3333333,185.91387,225.24507)"
                clip-path="url(#clipPath29)"/>
        <path
                id="path30"
                d="M 0,0 C 0,0 -10.408,18.384 -21.494,16.718 -32.58,15.052 -43.995,5.934 -39.711,-13.436 c 4.284,-19.369 19.252,-40.961 19.252,-40.961 l 39.599,17.416 c 0,0 21.287,13.223 14.138,25.893 C 21.634,9.549 0,0 0,0"
                style="fill:#ffffff;fill-opacity:1;fill-rule:nonzero;stroke:none"
                transform="matrix(1.3333333,0,0,-1.3333333,150.63347,146.86107)"
                clip-path="url(#clipPath31)"/>
        <path
                id="path36"
                d="M 72.501,128.748 C 58.177,108.569 89.732,58.561 91.161,57.843 v 0 c 2.557,0.035 48.287,20.939 52.881,26.342 v 0 c 5.381,6.329 6.478,13.827 5.479,20.473 v 0 c -1.111,5.121 -4.554,11.632 -12.853,16.753 v 0 c -6.275,3.689 -12.483,2.414 -16.897,1.138 v 0 c -3.089,-0.892 -5.299,-1.785 -6.039,-0.977 v 0 c -2.338,2.55 -5.849,12.756 -15.762,15.878 v 0 c -1.908,0.659 -3.981,0.999 -6.133,0.999 v 0 c -6.458,0 -13.644,-3.056 -19.336,-9.701 m 2.932,-14.491 c 2.53,8.96 7.876,16.646 17.69,15.478 v 0 c 10.894,-1.297 14.513,-14.755 18.162,-16.93 v 0 c 1.041,-0.147 3.317,0.924 6.289,1.996 v 0 c 5.326,1.923 12.888,3.845 19.578,-1.261 v 0 c 7.314,-6.647 7.156,-16.571 0.841,-24.694 v 0 C 128.364,77.453 106.239,76.105 93.848,67.492 v 0 c -0.207,0.238 -20.639,36.391 -18.415,46.765"
                transform="matrix(1.3333333,0,0,-1.3333333,0,302.36267)"
                style="fill:url(#linearGradient36);stroke:none"/>
        <path
                id="path37"
                d="m 0,0 c 0.088,0.844 -0.088,1.537 -0.526,2.078 -0.44,0.542 -1.081,0.857 -1.925,0.945 l -12.803,1.339 c -0.51,0.054 -0.928,0.038 -1.254,-0.047 -0.327,-0.085 -0.59,-0.236 -0.791,-0.453 -0.202,-0.217 -0.355,-0.493 -0.459,-0.829 -0.104,-0.336 -0.181,-0.73 -0.228,-1.182 -0.047,-0.451 -0.065,-0.91 -0.055,-1.377 0.011,-0.467 0.035,-0.812 0.071,-1.034 l 6.21,-0.65 -0.539,-5.15 c -0.057,-0.549 0.059,-1.003 0.349,-1.361 0.29,-0.357 0.807,-0.575 1.553,-0.653 0.392,-0.041 0.771,-0.026 1.135,0.045 0.365,0.071 0.663,0.174 0.895,0.308 l 0.675,6.445 3.325,-0.348 -0.646,-6.18 c -0.058,-0.549 0.059,-1.003 0.349,-1.361 0.289,-0.357 0.817,-0.576 1.582,-0.656 0.392,-0.041 0.776,-0.026 1.15,0.043 0.374,0.07 0.676,0.163 0.907,0.277 z m -1.88,-27.865 c 0.51,0.054 0.915,0.158 1.217,0.309 0.3,0.152 0.527,0.355 0.678,0.609 0.151,0.254 0.242,0.557 0.274,0.908 0.032,0.35 0.023,0.751 -0.025,1.202 -0.047,0.432 -0.13,0.879 -0.249,1.343 -0.12,0.463 -0.21,0.801 -0.273,1.012 l -11.151,-1.202 c -0.941,-0.101 -1.704,0.075 -2.289,0.528 -0.584,0.453 -0.922,1.101 -1.013,1.944 -0.089,0.824 0.104,1.525 0.577,2.101 0.474,0.577 1.182,0.916 2.123,1.018 l 8.974,0.966 c 0.509,0.055 0.915,0.159 1.216,0.31 0.301,0.152 0.528,0.355 0.679,0.609 0.151,0.254 0.242,0.557 0.274,0.908 0.032,0.35 0.023,0.751 -0.025,1.202 -0.047,0.432 -0.13,0.879 -0.249,1.343 -0.12,0.463 -0.211,0.801 -0.273,1.012 l -11.239,-1.211 c -1.059,-0.114 -2.006,-0.4 -2.839,-0.857 -0.834,-0.456 -1.523,-1.061 -2.067,-1.815 -0.544,-0.753 -0.93,-1.637 -1.157,-2.654 -0.228,-1.017 -0.275,-2.143 -0.142,-3.379 0.133,-1.236 0.419,-2.326 0.858,-3.271 0.439,-0.944 1.005,-1.726 1.697,-2.347 0.691,-0.62 1.493,-1.064 2.405,-1.333 0.912,-0.269 1.898,-0.346 2.957,-0.232 z m 4.096,14.326 C 1.926,-13.7 1.68,-13.91 1.481,-14.169 1.28,-14.429 1.128,-14.723 1.025,-15.052 0.921,-15.38 0.889,-15.721 0.927,-16.074 c 0.089,-0.824 0.408,-1.444 0.959,-1.861 0.551,-0.417 1.17,-0.589 1.856,-0.515 0.687,0.074 1.255,0.374 1.704,0.898 0.45,0.525 0.63,1.199 0.541,2.023 -0.078,0.726 -0.393,1.307 -0.946,1.743 -0.553,0.437 -1.173,0.618 -1.86,0.544 -0.353,-0.038 -0.675,-0.137 -0.965,-0.297 m -0.03,-7.177 C 1.735,-21.23 1.555,-21.9 1.643,-22.724 c 0.081,-0.745 0.397,-1.336 0.95,-1.772 0.553,-0.437 1.173,-0.618 1.86,-0.544 0.333,0.036 0.645,0.134 0.935,0.294 0.29,0.161 0.541,0.371 0.751,0.632 0.21,0.26 0.366,0.555 0.47,0.884 0.103,0.328 0.135,0.679 0.095,1.052 -0.089,0.823 -0.408,1.439 -0.958,1.846 -0.55,0.407 -1.168,0.573 -1.855,0.5 -0.686,-0.074 -1.255,-0.369 -1.705,-0.884 m -11.243,-18.752 -3.098,-3.541 c -0.232,-0.256 -0.442,-0.516 -0.629,-0.78 -0.188,-0.263 -0.332,-0.534 -0.433,-0.812 -0.101,-0.278 -0.153,-0.583 -0.155,-0.913 -0.003,-0.331 0.059,-0.704 0.186,-1.119 0.189,-0.623 0.535,-1.131 1.036,-1.525 0.501,-0.394 1.111,-0.585 1.829,-0.572 0.546,0.579 1.124,1.321 1.734,2.229 0.61,0.908 1.275,1.842 1.993,2.803 0.706,-0.692 1.565,-1.214 2.58,-1.566 1.014,-0.351 2.106,-0.348 3.277,0.008 1.868,0.569 3.148,1.681 3.841,3.335 0.692,1.654 0.642,3.784 -0.151,6.388 -0.293,0.963 -0.621,1.853 -0.983,2.67 -0.363,0.818 -0.755,1.514 -1.176,2.086 -0.248,0.337 -0.513,0.582 -0.796,0.732 -0.283,0.151 -0.622,0.166 -1.019,0.046 l -13.333,-4.06 c -0.491,-0.149 -0.87,-0.326 -1.138,-0.532 -0.267,-0.205 -0.453,-0.442 -0.557,-0.71 -0.103,-0.269 -0.138,-0.579 -0.103,-0.929 0.034,-0.35 0.117,-0.742 0.25,-1.177 0.132,-0.434 0.294,-0.864 0.485,-1.29 0.192,-0.426 0.347,-0.735 0.467,-0.925 l 5.436,1.655 z m 3.299,2.675 4.247,1.293 c 0.1,-0.196 0.186,-0.376 0.257,-0.54 0.07,-0.165 0.149,-0.388 0.235,-0.671 0.305,-1 0.343,-1.787 0.116,-2.362 -0.227,-0.575 -0.7,-0.971 -1.417,-1.189 -0.717,-0.219 -1.323,-0.176 -1.817,0.127 -0.494,0.303 -0.851,0.813 -1.069,1.53 z M 8.676,-67.524 c 0.494,0.327 0.787,0.716 0.878,1.167 0.092,0.451 -0.026,0.923 -0.352,1.417 l -2.761,4.17 c -0.283,0.428 -0.647,0.69 -1.089,0.787 -0.443,0.097 -0.961,-0.05 -1.553,-0.442 -0.329,-0.218 -0.611,-0.47 -0.848,-0.757 -0.236,-0.286 -0.412,-0.539 -0.527,-0.757 l 1.748,-2.64 -2.32,-1.536 c -0.18,0.093 -0.396,0.258 -0.646,0.495 -0.252,0.236 -0.497,0.535 -0.736,0.896 -0.371,0.56 -0.633,1.143 -0.787,1.751 -0.154,0.608 -0.179,1.218 -0.076,1.831 0.103,0.612 0.357,1.212 0.761,1.799 0.404,0.587 0.984,1.131 1.741,1.632 1.398,0.925 2.762,1.242 4.09,0.951 1.329,-0.292 2.451,-1.128 3.366,-2.51 0.511,-0.773 0.852,-1.547 1.022,-2.322 0.17,-0.775 0.268,-1.449 0.293,-2.024 0.366,-0.16 0.776,-0.243 1.231,-0.25 0.453,-0.007 0.894,0.131 1.322,0.414 0.806,0.534 1.158,1.423 1.055,2.669 -0.103,1.245 -0.671,2.649 -1.706,4.211 -0.719,1.086 -1.583,2.034 -2.593,2.844 -1.01,0.81 -2.111,1.394 -3.306,1.751 -1.194,0.357 -2.454,0.445 -3.778,0.266 -1.325,-0.179 -2.662,-0.715 -4.011,-1.608 -1.283,-0.85 -2.263,-1.818 -2.939,-2.904 -0.677,-1.087 -1.086,-2.228 -1.23,-3.423 -0.143,-1.195 -0.032,-2.417 0.333,-3.666 0.366,-1.248 0.941,-2.465 1.725,-3.649 0.294,-0.444 0.615,-0.876 0.964,-1.296 0.349,-0.42 0.705,-0.805 1.067,-1.157 0.363,-0.351 0.721,-0.658 1.073,-0.922 0.352,-0.264 0.669,-0.467 0.954,-0.611 0.491,-0.242 0.92,-0.372 1.287,-0.389 0.367,-0.018 0.805,0.142 1.315,0.48 z m 17.952,-8.334 c 0.352,0.373 0.594,0.714 0.726,1.025 0.131,0.31 0.172,0.611 0.122,0.903 -0.049,0.292 -0.176,0.581 -0.379,0.869 -0.203,0.288 -0.469,0.588 -0.798,0.9 -0.315,0.298 -0.668,0.585 -1.059,0.861 -0.392,0.275 -0.68,0.474 -0.864,0.595 l -7.716,-8.139 c -0.652,-0.688 -1.347,-1.048 -2.086,-1.082 -0.739,-0.033 -1.416,0.242 -2.031,0.825 -0.601,0.57 -0.909,1.229 -0.921,1.975 -0.013,0.746 0.306,1.463 0.957,2.15 l 6.21,6.55 c 0.353,0.372 0.595,0.713 0.726,1.024 0.132,0.31 0.173,0.611 0.123,0.903 -0.05,0.292 -0.177,0.582 -0.379,0.869 -0.203,0.288 -0.469,0.588 -0.799,0.9 -0.315,0.299 -0.668,0.586 -1.059,0.861 -0.391,0.276 -0.679,0.474 -0.863,0.595 L 8.76,-71.478 c -0.733,-0.773 -1.269,-1.603 -1.608,-2.492 -0.339,-0.888 -0.472,-1.795 -0.398,-2.721 0.073,-0.926 0.352,-1.85 0.838,-2.772 0.485,-0.922 1.178,-1.811 2.08,-2.666 0.902,-0.855 1.826,-1.5 2.773,-1.935 0.946,-0.436 1.884,-0.665 2.813,-0.689 0.928,-0.024 1.827,0.157 2.696,0.543 0.869,0.385 1.67,0.965 2.403,1.738 z m 3.878,-4.806 -5.725,-9.953 c -0.256,-0.444 -0.411,-0.833 -0.466,-1.165 -0.055,-0.333 -0.023,-0.635 0.093,-0.907 0.117,-0.272 0.307,-0.524 0.572,-0.756 0.265,-0.232 0.594,-0.461 0.988,-0.688 0.393,-0.226 0.805,-0.429 1.237,-0.609 0.431,-0.179 0.755,-0.298 0.973,-0.355 l 6.817,11.851 2.847,-1.638 c 0.479,-0.275 0.952,-0.354 1.418,-0.235 0.466,0.118 0.892,0.511 1.276,1.178 0.206,0.359 0.351,0.73 0.436,1.115 0.084,0.383 0.12,0.704 0.109,0.961 l -11.184,6.433 c -0.479,0.276 -0.952,0.354 -1.418,0.235 -0.467,-0.118 -0.891,-0.511 -1.275,-1.178 -0.207,-0.359 -0.352,-0.731 -0.436,-1.114 -0.085,-0.384 -0.121,-0.705 -0.109,-0.962 z m 7.169,-16.459 c -0.279,-0.801 -0.266,-1.516 0.038,-2.143 0.304,-0.628 0.857,-1.081 1.658,-1.36 l 8.163,-2.835 c 0.503,-0.175 0.962,-0.162 1.376,0.039 0.414,0.2 0.744,0.654 0.99,1.363 0.13,0.372 0.201,0.744 0.216,1.115 0.014,0.372 -0.009,0.682 -0.068,0.932 l -7.184,2.496 1.019,2.935 5.144,-1.787 c 0.503,-0.174 0.955,-0.165 1.357,0.03 0.402,0.195 0.726,0.646 0.972,1.354 0.129,0.373 0.199,0.74 0.21,1.102 0.011,0.361 -0.014,0.667 -0.072,0.918 l -6.29,2.185 0.903,2.6 5.898,-2.049 c 0.504,-0.175 0.961,-0.167 1.372,0.024 0.411,0.191 0.739,0.641 0.985,1.35 0.13,0.372 0.201,0.744 0.216,1.115 0.014,0.371 -0.009,0.682 -0.068,0.932 l -9.225,3.205 c -0.801,0.278 -1.516,0.265 -2.143,-0.039 -0.628,-0.304 -1.081,-0.857 -1.36,-1.658 z m 22.691,-1.873 c 0.544,-0.265 0.96,-0.52 1.248,-0.764 0.288,-0.244 0.408,-0.562 0.36,-0.953 -0.048,-0.392 -0.286,-0.711 -0.713,-0.956 -0.428,-0.246 -1.122,-0.31 -2.081,-0.192 -0.94,0.115 -1.787,0.378 -2.542,0.789 -0.754,0.41 -1.38,0.865 -1.875,1.363 -0.418,-0.168 -0.818,-0.432 -1.2,-0.792 -0.383,-0.361 -0.608,-0.825 -0.678,-1.393 -0.067,-0.548 0.035,-1.053 0.306,-1.513 0.272,-0.461 0.679,-0.869 1.222,-1.223 0.542,-0.355 1.191,-0.653 1.947,-0.895 0.755,-0.242 1.584,-0.418 2.484,-0.529 2.546,-0.312 4.538,-0.035 5.976,0.833 1.438,0.867 2.259,2.132 2.463,3.797 0.193,1.566 -0.15,2.865 -1.027,3.897 -0.877,1.032 -2.2,1.955 -3.969,2.768 l -1.495,0.69 c -0.49,0.219 -0.851,0.437 -1.082,0.655 -0.232,0.217 -0.33,0.473 -0.294,0.766 0.046,0.372 0.289,0.655 0.73,0.85 0.442,0.194 1.103,0.237 1.984,0.129 0.861,-0.106 1.642,-0.306 2.341,-0.6 0.699,-0.295 1.248,-0.606 1.645,-0.933 0.364,0.214 0.686,0.487 0.965,0.821 0.28,0.333 0.45,0.755 0.513,1.264 0.062,0.509 -0.03,0.973 -0.277,1.39 -0.246,0.418 -0.615,0.781 -1.103,1.09 -0.489,0.308 -1.089,0.566 -1.799,0.772 -0.71,0.207 -1.486,0.361 -2.328,0.465 -2.311,0.283 -4.169,0.004 -5.573,-0.837 -1.406,-0.841 -2.21,-2.094 -2.414,-3.758 -0.106,-0.862 -0.054,-1.609 0.157,-2.241 0.21,-0.632 0.544,-1.195 1,-1.688 0.457,-0.493 1.019,-0.935 1.686,-1.325 0.668,-0.39 1.414,-0.784 2.24,-1.184 z m 25.838,-4.389 c 0.555,-0.471 1.117,-0.866 1.687,-1.184 0.571,-0.318 1.255,-0.414 2.054,-0.286 0.37,0.059 0.711,0.173 1.024,0.343 0.312,0.17 0.582,0.393 0.807,0.668 0.226,0.276 0.39,0.592 0.493,0.948 0.103,0.356 0.12,0.748 0.052,1.177 -0.41,0.314 -0.894,0.686 -1.452,1.117 -0.558,0.43 -1.14,0.882 -1.745,1.354 -0.605,0.473 -1.222,0.959 -1.851,1.458 -0.629,0.499 -1.231,0.982 -1.805,1.45 l 3.07,4.236 c 0.474,0.655 0.803,1.226 0.984,1.715 0.182,0.489 0.233,0.986 0.152,1.493 -0.109,0.682 -0.491,1.225 -1.145,1.63 -0.654,0.405 -1.643,0.502 -2.968,0.29 l -4.963,-7.955 -0.742,4.647 c -0.081,0.506 -0.204,0.906 -0.371,1.199 -0.167,0.293 -0.381,0.509 -0.643,0.647 -0.261,0.138 -0.569,0.213 -0.92,0.227 -0.352,0.014 -0.752,-0.015 -1.2,-0.087 -0.429,-0.068 -0.871,-0.174 -1.328,-0.317 -0.456,-0.143 -0.789,-0.251 -0.997,-0.324 l 2.464,-15.429 c 0.081,-0.507 0.205,-0.906 0.372,-1.199 0.166,-0.293 0.381,-0.509 0.642,-0.647 0.262,-0.138 0.569,-0.214 0.921,-0.227 0.351,-0.014 0.751,0.015 1.2,0.087 0.448,0.071 0.901,0.173 1.359,0.307 0.458,0.133 0.79,0.246 0.995,0.338 l -1.032,6.458 z m 20.462,3.854 c 0.518,0.191 0.878,0.497 1.08,0.919 0.202,0.421 0.167,1.002 -0.107,1.742 -0.136,0.37 -0.323,0.706 -0.56,1.008 -0.238,0.301 -0.459,0.53 -0.663,0.686 l -6.358,-2.345 -4.045,10.966 c -0.178,0.481 -0.377,0.85 -0.597,1.105 -0.22,0.255 -0.472,0.425 -0.756,0.51 -0.283,0.084 -0.599,0.099 -0.947,0.045 -0.348,-0.055 -0.734,-0.161 -1.16,-0.318 -0.407,-0.15 -0.821,-0.34 -1.241,-0.568 -0.42,-0.229 -0.726,-0.399 -0.916,-0.511 l 5.295,-14.354 c 0.293,-0.796 0.757,-1.34 1.39,-1.632 0.633,-0.292 1.348,-0.291 2.144,0.002 z m 2.331,18.67 c -0.233,0.457 -0.474,0.799 -0.724,1.026 -0.248,0.227 -0.519,0.366 -0.811,0.416 -0.291,0.051 -0.607,0.028 -0.945,-0.067 -0.339,-0.096 -0.711,-0.247 -1.115,-0.453 -0.386,-0.198 -0.774,-0.435 -1.165,-0.712 -0.39,-0.277 -0.673,-0.483 -0.848,-0.616 l 7.11,-13.914 c 0.233,-0.457 0.475,-0.799 0.724,-1.026 0.249,-0.227 0.519,-0.366 0.811,-0.416 0.291,-0.05 0.606,-0.028 0.945,0.068 0.339,0.095 0.71,0.246 1.115,0.453 0.403,0.206 0.798,0.441 1.184,0.705 0.386,0.264 0.662,0.471 0.829,0.623 z m 17.045,3.3 c -0.418,1.149 -0.785,2.088 -1.101,2.817 l 0.116,0.091 c 0.762,-0.883 1.68,-1.993 2.757,-3.33 1.076,-1.337 2.321,-2.819 3.734,-4.444 0.491,-0.568 1.018,-0.796 1.58,-0.683 0.562,0.112 1.139,0.398 1.732,0.858 0.451,0.351 0.794,0.674 1.028,0.968 0.233,0.294 0.422,0.621 0.566,0.983 -0.306,0.362 -0.752,0.871 -1.337,1.528 -0.586,0.657 -1.237,1.375 -1.955,2.154 -0.718,0.779 -1.467,1.59 -2.247,2.433 -0.78,0.842 -1.523,1.639 -2.231,2.389 -0.707,0.749 -1.347,1.42 -1.919,2.012 -0.573,0.592 -1.011,1.019 -1.316,1.283 -0.405,0.36 -0.936,0.465 -1.594,0.316 -0.659,-0.15 -1.37,-0.521 -2.133,-1.114 -0.452,-0.351 -0.827,-0.712 -1.127,-1.082 -0.299,-0.37 -0.517,-0.708 -0.654,-1.014 0.33,-1.069 0.783,-2.359 1.359,-3.872 0.577,-1.514 1.186,-3.07 1.829,-4.669 l -0.116,-0.09 c -0.44,0.307 -0.934,0.654 -1.483,1.04 -0.549,0.385 -1.106,0.771 -1.669,1.158 -0.563,0.387 -1.114,0.758 -1.652,1.114 -0.539,0.356 -1.024,0.666 -1.455,0.931 -0.666,0.407 -1.332,0.557 -1.999,0.451 -0.667,-0.106 -1.414,-0.48 -2.239,-1.121 -0.764,-0.593 -1.265,-1.17 -1.504,-1.731 -0.239,-0.56 -0.342,-0.99 -0.309,-1.289 l 8.582,-12.444 c 0.448,-0.576 0.948,-0.826 1.499,-0.747 0.551,0.079 1.169,0.384 1.855,0.917 0.327,0.254 0.633,0.536 0.918,0.844 0.284,0.309 0.498,0.581 0.64,0.816 -0.643,0.925 -1.238,1.762 -1.783,2.512 -0.546,0.75 -1.093,1.487 -1.642,2.21 -0.549,0.722 -1.106,1.47 -1.67,2.244 -0.563,0.774 -1.179,1.638 -1.846,2.594 l 0.117,0.09 c 0.652,-0.518 1.448,-1.092 2.388,-1.723 0.94,-0.631 2.161,-1.463 3.662,-2.494 0.375,-0.258 0.801,-0.315 1.276,-0.171 0.474,0.144 0.993,0.435 1.553,0.87 0.421,0.327 0.752,0.665 0.992,1.015 0.241,0.349 0.396,0.688 0.465,1.017 -0.693,1.76 -1.248,3.214 -1.667,4.363 m 3.64,12.784 c 0.355,-0.62 0.766,-1.319 1.233,-2.098 0.467,-0.778 0.962,-1.607 1.487,-2.485 0.524,-0.879 1.043,-1.727 1.555,-2.543 0.512,-0.817 0.991,-1.574 1.436,-2.27 0.446,-0.696 0.828,-1.269 1.147,-1.717 0.224,-0.317 0.416,-0.594 0.577,-0.832 0.161,-0.238 0.347,-0.446 0.558,-0.623 0.469,-0.394 0.99,-0.517 1.565,-0.368 0.575,0.148 1.187,0.607 1.834,1.378 0.279,0.332 0.49,0.637 0.634,0.916 0.144,0.278 0.267,0.555 0.369,0.83 -0.352,0.501 -0.718,1.015 -1.1,1.543 -0.382,0.526 -0.749,1.041 -1.1,1.542 l 3.444,4.102 1.907,-0.906 c 0.32,-0.14 0.619,-0.244 0.898,-0.31 0.279,-0.067 0.546,-0.072 0.8,-0.015 0.254,0.057 0.516,0.185 0.785,0.384 0.27,0.198 0.557,0.479 0.862,0.841 0.419,0.499 0.716,0.983 0.892,1.454 0.177,0.47 0.235,0.884 0.176,1.244 -1.021,0.471 -2.199,1.009 -3.533,1.614 -1.334,0.605 -2.689,1.216 -4.066,1.831 -1.377,0.615 -2.72,1.202 -4.028,1.76 -1.309,0.559 -2.47,1.032 -3.484,1.42 -0.608,0.226 -1.266,0.141 -1.973,-0.256 -0.708,-0.398 -1.379,-0.974 -2.013,-1.729 -0.445,-0.529 -0.817,-1.111 -1.119,-1.746 -0.302,-0.636 -0.485,-1.146 -0.55,-1.529 0.183,-0.334 0.452,-0.812 0.807,-1.432 m 4.514,1.832 c 0.772,-0.339 1.639,-0.726 2.601,-1.16 0.962,-0.435 1.939,-0.889 2.933,-1.362 l -2.361,-2.81 c -0.622,0.884 -1.212,1.784 -1.768,2.703 -0.556,0.917 -1.062,1.748 -1.519,2.493 z"
                style="fill:#231f20;fill-opacity:1;fill-rule:nonzero;stroke:none"
                transform="matrix(1.3333333,0,0,-1.3333333,54.177867,131.8636)"
                clip-path="url(#clipPath38)"/>
        <path
                id="path39"
                d="M 0,0 C -0.319,0.48 -0.705,0.762 -1.157,0.845 -1.608,0.928 -2.074,0.81 -2.554,0.491 l -4.323,-2.877 c -0.411,-0.274 -0.66,-0.626 -0.746,-1.054 -0.086,-0.429 0.053,-0.918 0.419,-1.466 0.205,-0.309 0.442,-0.573 0.71,-0.79 0.269,-0.217 0.512,-0.377 0.729,-0.48 l 2.959,1.969 1.935,-2.907 c -0.132,-0.212 -0.336,-0.472 -0.614,-0.78 -0.277,-0.309 -0.622,-0.6 -1.033,-0.874 C -3.187,-9.213 -3.878,-9.524 -4.589,-9.7 -5.301,-9.877 -6,-9.896 -6.685,-9.759 c -0.686,0.138 -1.353,0.442 -2.001,0.915 -0.648,0.472 -1.252,1.128 -1.812,1.968 -0.513,0.772 -0.856,1.547 -1.027,2.324 -0.171,0.778 -0.184,1.523 -0.041,2.238 0.144,0.714 0.434,1.384 0.872,2.009 0.437,0.626 1.017,1.178 1.737,1.658 0.875,0.582 1.714,0.967 2.517,1.155 0.803,0.188 1.51,0.287 2.122,0.298 0.16,0.354 0.243,0.75 0.249,1.187 0.006,0.437 -0.122,0.853 -0.385,1.248 -0.513,0.772 -1.408,1.092 -2.682,0.962 -1.275,-0.131 -2.709,-0.726 -4.305,-1.788 -1.218,-0.811 -2.237,-1.743 -3.058,-2.797 -0.821,-1.054 -1.39,-2.187 -1.708,-3.402 -0.319,-1.214 -0.36,-2.491 -0.123,-3.831 0.236,-1.341 0.805,-2.689 1.707,-4.043 0.959,-1.441 2.004,-2.528 3.135,-3.26 1.131,-0.733 2.313,-1.171 3.548,-1.315 1.234,-0.144 2.484,-0.023 3.75,0.362 1.266,0.385 2.517,0.988 3.752,1.81 0.446,0.297 0.879,0.622 1.3,0.976 0.42,0.354 0.811,0.714 1.175,1.08 0.363,0.365 0.676,0.722 0.939,1.07 0.264,0.348 0.469,0.671 0.618,0.969 0.252,0.514 0.392,0.953 0.421,1.319 0.029,0.366 -0.122,0.797 -0.453,1.295 z m 10.359,-5.914 8.629,3.133 c 0.484,0.175 0.814,0.459 0.989,0.852 0.175,0.392 0.147,0.908 -0.085,1.547 -0.133,0.368 -0.305,0.689 -0.514,0.964 -0.21,0.275 -0.407,0.488 -0.594,0.64 l -7.699,-2.795 -1.318,3.632 5.636,2.046 c 0.503,0.182 0.836,0.473 0.999,0.872 0.162,0.398 0.127,0.917 -0.105,1.557 -0.134,0.367 -0.302,0.679 -0.504,0.935 -0.202,0.255 -0.397,0.458 -0.583,0.61 L 8.47,5.632 7.288,8.886 l 6.45,2.341 c 0.504,0.183 0.84,0.48 1.008,0.892 0.168,0.412 0.137,0.938 -0.095,1.577 -0.134,0.368 -0.302,0.68 -0.504,0.935 -0.203,0.255 -0.397,0.459 -0.583,0.61 L 3.947,11.751 C 3.211,11.483 2.704,11.053 2.427,10.459 2.149,9.865 2.144,9.2 2.411,8.464 L 7.072,-4.378 C 7.34,-5.114 7.77,-5.62 8.364,-5.898 8.958,-6.176 9.623,-6.181 10.359,-5.914 M 36.771,9.36 c 0.384,1.344 0.674,2.455 0.869,3.334 l 0.154,0.009 c 0.138,-1.272 0.292,-2.898 0.462,-4.88 0.17,-1.982 0.399,-4.161 0.686,-6.538 0.084,-0.718 0.375,-1.186 0.873,-1.403 0.498,-0.218 1.087,-0.307 1.766,-0.266 0.534,0.032 0.973,0.104 1.318,0.218 0.344,0.113 0.665,0.272 0.962,0.475 -0.051,0.513 -0.135,1.231 -0.252,2.153 -0.117,0.922 -0.251,1.94 -0.4,3.057 -0.15,1.116 -0.312,2.272 -0.486,3.469 -0.175,1.198 -0.347,2.338 -0.515,3.422 -0.168,1.084 -0.329,2.044 -0.482,2.882 -0.153,0.837 -0.283,1.458 -0.39,1.865 -0.134,0.508 -0.486,0.879 -1.057,1.113 -0.572,0.234 -1.32,0.324 -2.246,0.269 -0.535,-0.032 -1.02,-0.113 -1.456,-0.242 -0.436,-0.13 -0.794,-0.275 -1.073,-0.436 C 35.141,16.683 34.722,15.229 34.248,13.497 33.773,11.766 33.302,9.978 32.835,8.134 L 32.68,8.124 c -0.241,0.584 -0.501,1.224 -0.78,1.92 -0.279,0.695 -0.564,1.395 -0.853,2.101 -0.29,0.705 -0.579,1.394 -0.867,2.069 -0.288,0.674 -0.562,1.282 -0.822,1.824 -0.33,0.682 -0.781,1.161 -1.355,1.436 -0.574,0.275 -1.344,0.384 -2.311,0.326 -0.905,-0.054 -1.601,-0.235 -2.088,-0.543 -0.488,-0.308 -0.807,-0.58 -0.958,-0.816 -0.009,-0.888 -0.013,-1.853 -0.012,-2.896 0,-1.042 -0.004,-2.095 -0.013,-3.158 C 22.612,9.323 22.603,8.275 22.593,7.242 22.582,6.209 22.578,5.244 22.58,4.346 c 0.002,-0.898 0.009,-1.692 0.019,-2.383 0.01,-0.691 0.027,-1.232 0.051,-1.622 0.04,-0.679 0.295,-1.144 0.764,-1.394 0.469,-0.251 1.105,-0.352 1.907,-0.304 0.411,0.024 0.805,0.084 1.182,0.179 0.376,0.095 0.674,0.19 0.896,0.286 C 27.387,0.345 27.37,1.479 27.35,2.511 27.33,3.541 27.305,4.562 27.275,5.572 27.246,6.581 27.22,7.617 27.198,8.679 27.175,9.74 27.157,10.91 27.142,12.19 l 0.124,0.007 c 0.322,-0.909 0.753,-1.983 1.292,-3.22 0.538,-1.237 1.193,-2.793 1.966,-4.666 0.169,-0.403 0.479,-0.674 0.931,-0.812 0.452,-0.138 1.007,-0.187 1.666,-0.148 0.493,0.03 0.932,0.118 1.315,0.265 0.384,0.147 0.693,0.33 0.927,0.551 0.555,2.118 1.024,3.849 1.408,5.193 M 49.256,-1.413 58.23,-3.346 c 0.503,-0.109 0.934,-0.043 1.291,0.196 0.357,0.239 0.607,0.691 0.751,1.356 0.082,0.382 0.107,0.746 0.076,1.09 -0.031,0.344 -0.085,0.63 -0.163,0.857 l -8.007,1.725 0.814,3.777 5.861,-1.263 c 0.524,-0.113 0.96,-0.044 1.31,0.208 0.349,0.252 0.595,0.71 0.738,1.375 0.083,0.382 0.106,0.736 0.071,1.059 -0.036,0.324 -0.093,0.6 -0.17,0.827 l -7.01,1.51 0.729,3.384 6.708,-1.445 c 0.523,-0.112 0.966,-0.039 1.327,0.22 0.361,0.26 0.614,0.722 0.757,1.387 0.083,0.382 0.106,0.736 0.07,1.059 -0.035,0.324 -0.092,0.6 -0.169,0.827 l -10.001,2.154 c -0.766,0.165 -1.424,0.07 -1.975,-0.286 -0.551,-0.355 -0.909,-0.916 -1.073,-1.681 L 47.288,1.634 C 47.124,0.869 47.219,0.211 47.575,-0.34 47.93,-0.891 48.49,-1.249 49.256,-1.413 m 16.487,-4.91 c 0.403,-0.098 0.722,-0.159 0.956,-0.182 l 5.944,15.629 c 0.322,0.847 0.351,1.487 0.085,1.919 -0.266,0.432 -0.832,0.812 -1.698,1.142 -0.405,0.154 -0.816,0.277 -1.232,0.369 -0.417,0.093 -0.739,0.16 -0.965,0.202 L 62.889,-2.873 c -0.308,-0.809 -0.343,-1.435 -0.103,-1.879 0.239,-0.443 0.811,-0.837 1.716,-1.182 0.423,-0.161 0.837,-0.29 1.241,-0.389 m 18.482,-9.795 8.713,13.725 c 0.442,0.696 0.592,1.278 0.45,1.747 -0.142,0.468 -0.605,0.951 -1.387,1.448 -0.383,0.243 -0.761,0.446 -1.133,0.609 -0.372,0.163 -0.657,0.282 -0.853,0.358 L 87.266,-2.563 C 86.658,-3.52 86.027,-4.522 85.374,-5.572 84.72,-6.621 84.066,-7.756 83.414,-8.977 l -0.121,0.04 c 0.142,0.764 0.264,1.504 0.366,2.221 0.101,0.717 0.18,1.447 0.238,2.192 l 0.674,7.809 C 84.642,4.167 84.482,4.866 84.091,5.383 83.699,5.9 83.199,6.352 82.59,6.739 82.068,7.07 81.524,7.3 80.958,7.427 80.392,7.554 79.911,7.536 79.515,7.373 L 70.984,-6.065 c -0.442,-0.696 -0.592,-1.279 -0.45,-1.747 0.142,-0.468 0.605,-0.951 1.388,-1.448 0.365,-0.232 0.731,-0.433 1.098,-0.605 0.367,-0.172 0.648,-0.296 0.844,-0.372 l 3.081,4.854 c 0.563,0.887 1.137,1.81 1.722,2.769 0.584,0.959 1.164,1.989 1.74,3.087 L 80.622,0.41 c -0.143,-0.764 -0.265,-1.504 -0.366,-2.221 -0.101,-0.717 -0.181,-1.447 -0.238,-2.191 l -0.683,-7.767 c -0.083,-0.899 0.076,-1.611 0.476,-2.133 0.401,-0.523 0.896,-0.972 1.488,-1.347 0.574,-0.365 1.111,-0.614 1.612,-0.749 0.5,-0.134 0.938,-0.174 1.314,-0.12 m 6.823,-2.369 c -0.319,0.847 -0.504,1.629 -0.557,2.344 -0.434,0.129 -0.895,0.183 -1.384,0.16 -0.489,-0.022 -0.935,-0.225 -1.34,-0.607 -0.389,-0.368 -0.621,-0.821 -0.694,-1.358 -0.074,-0.537 -0.014,-1.118 0.18,-1.743 0.193,-0.625 0.51,-1.283 0.95,-1.973 0.439,-0.69 0.984,-1.38 1.635,-2.069 0.878,-0.928 1.757,-1.649 2.639,-2.163 0.882,-0.513 1.74,-0.836 2.574,-0.969 0.834,-0.133 1.627,-0.079 2.377,0.162 0.75,0.241 1.44,0.658 2.069,1.253 0.584,0.552 1.02,1.133 1.307,1.745 0.287,0.611 0.436,1.262 0.449,1.955 0.012,0.691 -0.095,1.434 -0.319,2.228 -0.226,0.793 -0.551,1.655 -0.976,2.586 l -0.742,1.595 c -0.288,0.635 -0.46,1.139 -0.515,1.512 -0.055,0.373 0.067,0.701 0.367,0.985 0.345,0.325 0.792,0.422 1.342,0.289 0.55,-0.132 1.165,-0.557 1.844,-1.276 0.637,-0.674 1.141,-1.374 1.515,-2.099 0.372,-0.725 0.602,-1.372 0.688,-1.943 0.392,-0.055 0.8,-0.045 1.225,0.031 0.425,0.075 0.809,0.275 1.154,0.601 0.36,0.339 0.568,0.749 0.625,1.228 0.058,0.48 -0.004,1.002 -0.185,1.569 -0.181,0.566 -0.484,1.165 -0.911,1.797 -0.426,0.632 -0.944,1.269 -1.552,1.913 -1.599,1.693 -3.215,2.668 -4.847,2.926 -1.633,0.257 -3.078,-0.208 -4.336,-1.397 -0.629,-0.594 -1.07,-1.201 -1.32,-1.821 -0.251,-0.619 -0.368,-1.261 -0.35,-1.925 0.017,-0.664 0.151,-1.36 0.4,-2.088 0.248,-0.729 0.573,-1.5 0.973,-2.313 l 0.723,-1.485 c 0.33,-0.68 0.51,-1.254 0.541,-1.721 0.03,-0.467 -0.134,-0.871 -0.493,-1.21 -0.39,-0.368 -0.882,-0.514 -1.478,-0.439 -0.596,0.075 -1.268,0.51 -2.018,1.303 -0.722,0.764 -1.242,1.57 -1.56,2.417 m 12.758,-21.667 c -0.493,-0.468 -0.785,-0.935 -0.876,-1.402 -0.092,-0.465 0.081,-1.084 0.518,-1.855 0.305,-0.538 0.638,-0.959 0.999,-1.264 0.362,-0.304 0.715,-0.488 1.06,-0.554 0.86,0.866 1.828,1.852 2.906,2.96 1.078,1.108 2.166,2.239 3.264,3.394 1.098,1.154 2.163,2.285 3.195,3.39 1.032,1.105 1.926,2.097 2.684,2.976 0.418,0.474 0.564,1.083 0.438,1.829 -0.126,0.745 -0.418,1.521 -0.874,2.328 -0.315,0.556 -0.704,1.076 -1.168,1.559 -0.463,0.484 -0.851,0.814 -1.165,0.992 -0.486,-0.062 -1.127,-0.164 -1.922,-0.307 -0.795,-0.143 -1.673,-0.296 -2.633,-0.461 -0.961,-0.165 -1.967,-0.344 -3.018,-0.537 -1.051,-0.192 -2.072,-0.386 -3.063,-0.58 -0.991,-0.194 -1.912,-0.378 -2.761,-0.551 -0.849,-0.173 -1.551,-0.334 -2.106,-0.483 -0.356,-0.083 -0.671,-0.154 -0.944,-0.215 -0.274,-0.06 -0.536,-0.161 -0.787,-0.303 -0.52,-0.295 -0.805,-0.723 -0.854,-1.283 -0.05,-0.561 0.149,-1.236 0.596,-2.025 0.203,-0.358 0.402,-0.648 0.598,-0.869 0.196,-0.22 0.396,-0.426 0.6,-0.619 0.555,0.149 1.194,0.315 1.919,0.5 0.723,0.186 1.464,0.362 2.221,0.53 l 2.985,-5.271 z m 9.624,9.535 c -0.631,-0.641 -1.373,-1.411 -2.226,-2.308 -0.854,-0.898 -1.759,-1.819 -2.716,-2.764 l -2.178,3.846 c 1.259,0.287 2.507,0.538 3.747,0.754 1.239,0.217 2.333,0.428 3.282,0.634 z m 4.822,-28.664 c 1.385,-0.186 2.527,-0.312 3.425,-0.378 l 0.031,-0.152 c -1.239,-0.32 -2.826,-0.707 -4.762,-1.162 -1.937,-0.454 -4.06,-0.995 -6.371,-1.623 -0.698,-0.187 -1.119,-0.542 -1.262,-1.067 -0.144,-0.524 -0.147,-1.119 -0.008,-1.785 0.109,-0.524 0.244,-0.949 0.406,-1.273 0.162,-0.324 0.365,-0.619 0.61,-0.884 0.499,0.125 1.198,0.312 2.093,0.561 0.895,0.249 1.884,0.529 2.967,0.837 1.083,0.31 2.204,0.637 3.363,0.983 1.159,0.346 2.263,0.68 3.312,1.003 1.048,0.323 1.975,0.621 2.781,0.893 0.806,0.273 1.403,0.492 1.79,0.656 0.483,0.206 0.799,0.608 0.949,1.207 0.149,0.599 0.129,1.353 -0.059,2.261 -0.109,0.525 -0.259,0.993 -0.45,1.406 -0.191,0.413 -0.387,0.746 -0.586,0.999 -1.218,0.189 -2.718,0.393 -4.5,0.612 -1.781,0.22 -3.619,0.428 -5.511,0.624 l -0.032,0.151 c 0.543,0.323 1.139,0.673 1.787,1.05 0.648,0.376 1.299,0.759 1.955,1.148 0.656,0.388 1.297,0.774 1.923,1.156 0.625,0.383 1.187,0.742 1.686,1.076 0.627,0.426 1.036,0.942 1.225,1.549 0.19,0.608 0.186,1.386 -0.011,2.334 -0.184,0.888 -0.464,1.55 -0.839,1.988 -0.375,0.438 -0.69,0.714 -0.945,0.83 -0.881,-0.12 -1.837,-0.255 -2.868,-0.406 -1.031,-0.151 -2.074,-0.299 -3.127,-0.445 -1.054,-0.145 -2.093,-0.287 -3.116,-0.426 -1.024,-0.138 -1.979,-0.273 -2.867,-0.406 -0.888,-0.131 -1.673,-0.252 -2.355,-0.362 -0.683,-0.111 -1.216,-0.205 -1.599,-0.285 -0.665,-0.138 -1.088,-0.457 -1.269,-0.958 -0.18,-0.5 -0.188,-1.144 -0.025,-1.931 0.084,-0.403 0.2,-0.784 0.348,-1.143 0.148,-0.358 0.285,-0.64 0.412,-0.845 1.223,0.19 2.343,0.371 3.361,0.539 1.017,0.17 2.023,0.342 3.018,0.517 0.994,0.175 2.015,0.35 3.063,0.525 1.047,0.176 2.202,0.363 3.466,0.562 l 0.025,-0.121 c -0.853,-0.45 -1.853,-1.032 -3,-1.743 -1.146,-0.712 -2.591,-1.585 -4.333,-2.621 -0.374,-0.224 -0.597,-0.57 -0.668,-1.038 -0.072,-0.467 -0.04,-1.023 0.094,-1.669 0.101,-0.484 0.251,-0.906 0.452,-1.264 0.2,-0.358 0.427,-0.637 0.679,-0.837 2.176,-0.243 3.956,-0.457 5.342,-0.643"
                style="fill:#231f20;fill-opacity:1;fill-rule:nonzero;stroke:none"
                transform="matrix(1.3333333,0,0,-1.3333333,103.1468,49.632133)"
                clip-path="url(#clipPath40)"/>
    </g>
</svg>
