<svg width="98" height="96" viewBox="0 0 98 96" fill="none" xmlns="http://www.w3.org/2000/svg">
<path d="M42.8125 24.5625C34.9375 25.875 27.8125 29.4375 22.375 34.6875L1.375 4.875C0.0625 2.8125 1.5625 0 4 0H26.5C27.4375 0 28.5625 0.5625 28.9375 1.5L42.8125 24.5625ZM49 30C67.1875 30 82 44.8125 82 63C82 81.375 67.1875 96 49 96C30.625 96 16 81.375 16 63C16 44.8125 30.625 30 49 30ZM66.25 59.625C67.5625 58.3125 66.8125 56.0625 65.125 55.875L55.1875 54.375L50.875 45.5625C50.5 44.8125 49.75 44.4375 48.8125 44.4375C48.0625 44.4375 47.3125 44.8125 46.9375 45.5625L42.625 54.375L32.6875 55.875C31 56.0625 30.25 58.3125 31.5625 59.625L38.6875 66.5625L37 76.3125C36.625 78 38.5 79.3125 40.1875 78.5625L48.8125 73.875L57.625 78.5625C59.3125 79.5 61.1875 78 60.8125 76.3125L59.125 66.5625L66.25 59.625ZM93.8125 0C96.25 0 97.75 2.8125 96.4375 4.6875L75.4375 34.5C70 29.25 62.875 25.6875 55 24.375L68.6875 1.5C69.25 0.5625 70.375 0 71.3125 0H93.8125Z" fill="#B4BBC2"/>
</svg>
